<?xml version="1.0" standalone="no"?><!DOCTYPE svg PUBLIC "-//W3C//DTD SVG 1.1//EN" "http://www.w3.org/Graphics/SVG/1.1/DTD/svg11.dtd"><svg t="1749356674508" class="icon" viewBox="0 0 1024 1024" version="1.1" xmlns="http://www.w3.org/2000/svg" p-id="2699" xmlns:xlink="http://www.w3.org/1999/xlink" width="200" height="200"><path d="M241.004403 938.360812l5.872402-5.068441a126.72852 126.72852 0 0 1 103.815668-18.351255c37.087011 10.136883 69.262878 37.052057 96.929579 81.269842a133.492268 133.492268 0 0 1-117.37812 22.545826 125.575013 125.575013 0 0 1-87.386926-74.453661c-0.524322-1.398191-1.852603-5.942311-1.852603-5.942311z m129.332651-68.51135a126.79843 126.79843 0 0 1 107.381055-24.643113 172.466837 172.466837 0 0 1 98.869568 74.977983 130.783274 130.783274 0 0 1-113.463185 24.468339 144.887523 144.887523 0 0 1-92.787438-74.803209z m61.642738-175.822495a274.394948 274.394948 0 0 1-58.007442 133.352449 189.000444 189.000444 0 0 1-120.087114 67.11316 361.781874 361.781874 0 0 1 69.490084-145.411845 158.327633 158.327633 0 0 1 108.586994-55.053764z m157.908175 60.646527a62.796245 62.796245 0 1 1 7.987165 94.727428 122.726199 122.726199 0 0 1-103.728281-35.653866 142.877624 142.877624 0 0 1 95.723639-59.073562z m-49.688206-214.971838a260.41304 260.41304 0 0 1 4.858713 135.100187 257.686568 257.686568 0 0 1-73.684656 127.060591 355.350196 355.350196 0 0 1 0.139819-154.849633 203.751357 203.751357 0 0 1 68.686124-107.311145z m103.116573 91.756272a131.080389 131.080389 0 0 1 103.518552-1.048643 159.918075 159.918075 0 0 1-78.193821 83.367127 113.603004 113.603004 0 0 1-102.697116-0.349547 160.372487 160.372487 0 0 1 77.372385-81.968937z m-33.574057-221.263697a215.82823 215.82823 0 0 1 25.219867 115.001195 170.946305 170.946305 0 0 1-43.885715 110.631848 222.189998 222.189998 0 0 1-24.817887-119.545315 180.349138 180.349138 0 0 1 43.343916-106.087728z m173.498003 57.675371a175.472948 175.472948 0 0 1-47.783171 101.019287 115.560471 115.560471 0 0 1-91.406725 37.925926 177.919782 177.919782 0 0 1 48.779382-101.194061 129.944359 129.944359 0 0 1 90.340604-37.751152z m-19.731968-138.420891a178.758696 178.758696 0 0 1-20.972862 104.864312 123.005837 123.005837 0 0 1-73.981772 62.918586 182.463902 182.463902 0 0 1 22.213757-106.437275 136.323605 136.323605 0 0 1 72.65349-61.345623zM582.774671 242.935655a160.250145 160.250145 0 0 1 61.69517 77.250042 175.542857 175.542857 0 0 1 9.193105 105.388633 160.791944 160.791944 0 0 1-63.250657-79.87165 184.124253 184.124253 0 0 1-7.707527-102.767025z m162.452296-43.169142a161.543472 161.543472 0 0 1-7.847346 97.698583 122.236832 122.236832 0 0 1-61.852466 68.161803 164.916607 164.916607 0 0 1 8.895989-99.621096 132.985424 132.985424 0 0 1 60.733914-66.23929z m-62.708858-91.581498a152.210548 152.210548 0 0 1 11.500119 91.581498 126.39645 126.39645 0 0 1-43.850759 78.47346 154.832156 154.832156 0 0 1-11.010753-94.028333 136.323605 136.323605 0 0 1 43.361393-76.026625z m-180.261751 15.205325a128.371394 128.371394 0 0 1 80.395972 31.634067 137.337293 137.337293 0 0 1 46.85687 77.59959 122.708722 122.708722 0 0 1-81.234887-31.284519 146.810036 146.810036 0 0 1-46.087865-77.949138zM610.196689 13.457587a136.009012 136.009012 0 0 1 30.987404 79.172555 124.561324 124.561324 0 0 1-22.248712 82.668032 138.071343 138.071343 0 0 1-31.319474-81.619389A132.828128 132.828128 0 0 1 610.196689 13.457587zM491.123263 0.174774a129.157877 129.157877 0 0 1 88.680253 128.983103 122.691244 122.691244 0 0 1-66.588838-49.286227A131.971736 131.971736 0 0 1 491.053354 0.174774z" fill="#B98E47" p-id="2700"></path></svg>